<svg xmlns="http://www.w3.org/2000/svg" xmlns:xlink="http://www.w3.org/1999/xlink" width="500" zoomAndPan="magnify" viewBox="0 0 375 149.999998" height="200" preserveAspectRatio="xMidYMid meet" version="1.0"><defs><g/></defs><path stroke-linecap="butt" transform="matrix(0.679103, -0.318307, 0.318307, 0.679103, 0.835874, 46.097241)" fill="none" stroke-linejoin="miter" d="M 2.805206 80.998957 L 2.805467 74.297912 L 5.530091 74.056442 C 7.129082 73.897089 7.929591 73.121886 7.929406 71.735549 L 7.929548 33.311753 L 3.23041 33.053388 L 3.227125 26.028565 L 25.872296 26.030165 C 33.97132 26.029946 40.291169 28.181125 44.841276 32.488122 C 49.388582 36.776551 51.663159 43.140345 51.660292 51.577296 C 51.662496 56.812717 50.969525 61.371421 49.583882 65.260334 C 48.211798 69.132594 46.343339 72.173979 43.97379 74.382278 C 39.236902 78.79416 33.342047 81.000934 26.296149 81.000092 Z M 18.022842 34.039208 L 18.021684 73.066496 L 26.458635 73.069363 C 31.193136 73.068204 34.880212 71.362411 37.517358 67.945057 C 40.166146 64.527408 41.489715 59.568275 41.492782 53.069868 C 41.490524 40.385484 36.11758 34.041963 25.367023 34.04181 Z M 18.022842 34.039208 " stroke="#ffbd59" stroke-width="3.564932" stroke-opacity="1" stroke-miterlimit="4"/><path stroke-linecap="butt" transform="matrix(0.711165, -0.23821, 0.23821, 0.711165, 42.179542, 26.995917)" fill="none" stroke-linejoin="miter" d="M 28.557478 25.038838 C 35.094509 25.036857 40.564179 27.352323 44.96155 31.983581 C 49.377046 36.609925 51.578669 43.68051 51.584543 53.19042 C 51.582195 62.692083 49.389396 69.878129 45.001184 74.763374 C 40.629466 79.632172 34.709803 82.071 27.245503 82.06998 C 19.776265 82.067306 13.918048 79.649157 9.669221 74.804003 C 5.430295 69.945687 3.310999 62.891693 3.308048 53.635428 C 3.310519 48.560958 4.051579 44.118377 5.529599 40.296152 C 7.022458 36.462419 8.978516 33.492403 11.399403 31.397633 C 16.312069 27.160434 22.031978 25.03919 28.557478 25.038838 Z M 13.643699 53.230533 C 13.640203 66.900806 18.37694 73.732981 27.850602 73.736935 C 32.921787 73.732813 36.48077 71.634765 38.524268 67.436198 C 40.395725 63.75125 41.331239 59.236484 41.329156 53.896837 C 41.327933 49.095768 40.504278 44.683841 38.848314 40.65775 C 37.906144 38.452659 36.487296 36.719567 34.588485 35.451881 C 32.694612 34.18585 30.224999 33.556375 27.182955 33.553579 C 24.155726 33.555745 21.553625 34.551687 19.371712 36.539749 C 17.209578 38.517958 15.708933 40.915476 14.871434 43.727366 C 14.050404 46.539279 13.642254 49.709199 13.643699 53.230533 Z M 13.643699 53.230533 " stroke="#ffbd59" stroke-width="3.564932" stroke-opacity="1" stroke-miterlimit="4"/><path stroke-linecap="butt" transform="matrix(0.736636, -0.140951, 0.140951, 0.736636, 85.98829, 12.195876)" fill="none" stroke-linejoin="miter" d="M 72.728159 32.729796 L 70.004845 32.967007 C 68.578754 33.075936 67.671836 34.074326 67.279955 35.956083 L 56.868692 80.999978 L 45.546697 81.002429 L 36.869013 44.210802 L 36.630005 44.212794 L 28.190824 81.001042 L 16.52969 81.002235 L 5.12779 33.311719 L 0.405376 33.049752 L 0.402001 26.02817 L 20.908084 26.027811 L 20.908802 32.730716 L 18.185488 32.967927 C 16.475992 33.144593 15.621931 33.866744 15.619168 35.128287 C 15.619961 35.345855 15.646552 35.594872 15.698942 35.875341 L 22.9038 67.782301 L 23.227593 67.780623 L 31.826357 30.407783 L 42.480304 30.404773 L 51.418541 67.940925 L 51.582017 67.945691 L 58.606723 33.395026 L 54.144093 33.050197 L 54.145835 26.029593 L 72.732557 26.027869 Z M 72.728159 32.729796 " stroke="#ffbd59" stroke-width="3.564932" stroke-opacity="1" stroke-miterlimit="4"/><path stroke-linecap="butt" transform="matrix(0.749011, -0.0385008, 0.0385008, 0.749011, 145.078706, 1.642872)" fill="none" stroke-linejoin="miter" d="M 2.641508 80.999819 L 2.641777 74.298288 L 5.632134 74.055643 C 7.056023 73.951517 7.768722 73.174579 7.769694 71.735231 L 7.768028 33.314697 L 3.066972 33.052191 L 3.068214 26.027368 L 17.941831 26.030483 L 41.332426 63.968746 L 41.489005 63.966364 L 41.489742 33.311401 L 36.042738 33.052274 L 36.043979 26.02745 L 56.200853 26.02573 L 56.200583 32.727261 L 53.236234 32.971243 C 51.916641 33.075515 51.257148 33.933416 51.25829 35.534544 L 51.257645 81.000708 L 41.573122 80.998347 L 17.696191 42.477058 L 17.519074 42.473169 L 17.51853 73.733107 L 22.903652 73.978623 L 22.902678 80.998245 Z M 2.641508 80.999819 " stroke="#ffbd59" stroke-width="3.564932" stroke-opacity="1" stroke-miterlimit="4"/><path stroke-linecap="butt" transform="matrix(0.748756, 0.0431705, -0.0431705, 0.748756, 192.814314, -0.331775)" fill="none" stroke-linejoin="miter" d="M 18.021307 71.73753 L 18.023353 34.222086 L 11.564542 34.218855 C 10.296818 34.218909 9.667925 35.074235 9.667464 36.785432 L 9.666325 40.6565 L 1.233353 40.073232 L 1.232257 26.029177 L 44.475856 26.029628 L 44.476952 40.073684 L 36.043538 40.659046 L 36.044377 36.782779 C 36.042411 35.843836 35.900043 35.18427 35.617274 34.804083 C 35.349804 34.417796 34.691551 34.220985 33.642814 34.218847 L 28.029351 34.219046 L 28.032933 73.73227 L 34.547433 73.977489 L 34.55058 80.999366 L 11.241282 81.00253 L 11.240823 74.298733 L 15.619568 74.056705 C 17.222377 73.896472 18.023057 73.125147 18.021307 71.73753 Z M 18.021307 71.73753 " stroke="#ffbd59" stroke-width="3.564932" stroke-opacity="1" stroke-miterlimit="4"/><path stroke-linecap="butt" transform="matrix(0.74006, 0.121703, -0.121703, 0.74006, 230.989091, 1.896378)" fill="none" stroke-linejoin="miter" d="M 28.555138 25.039498 C 35.095148 25.040764 40.563294 27.350728 44.961266 31.979668 C 49.3755 36.611211 51.583066 43.68001 51.579669 53.192048 C 51.584016 62.686978 49.388497 69.878139 45.003391 74.763841 C 40.632014 79.636729 34.708391 82.067678 27.245338 82.070414 C 19.776301 82.068856 13.920514 79.648456 9.666853 74.805766 C 5.426919 69.950262 3.310947 62.892792 3.308658 53.635047 C 3.30847 48.562641 4.050151 44.117752 5.527715 40.296085 C 7.024147 36.460759 8.98022 33.494659 11.401074 31.39694 C 16.314801 27.157989 22.031391 25.040836 28.555138 25.039498 Z M 13.640151 53.229214 C 13.639769 66.900049 18.379757 73.737131 27.84899 73.73701 C 32.921396 73.736822 36.481921 71.636425 38.525424 67.436662 C 40.394856 63.751128 41.331053 59.237302 41.328877 53.89603 C 41.330678 49.092489 40.505349 44.683607 38.846061 40.659948 C 37.907246 38.449662 36.487051 36.714411 34.590617 35.453349 C 32.693337 34.187148 30.224432 33.553336 27.184748 33.557053 C 24.154497 33.553941 21.552779 34.551849 19.372764 36.541344 C 17.206476 38.518026 15.705446 40.913135 14.874812 43.725826 C 14.054457 46.536826 13.641753 49.70833 13.640151 53.229214 Z M 13.640151 53.229214 " stroke="#ffbd59" stroke-width="3.564932" stroke-opacity="1" stroke-miterlimit="4"/><path stroke-linecap="butt" transform="matrix(0.717133, 0.219592, -0.219592, 0.717133, 276.636609, 9.282286)" fill="none" stroke-linejoin="miter" d="M 72.73287 32.725892 L 70.008411 32.971864 C 68.580725 33.076764 67.671458 34.074199 67.284065 35.957663 L 56.870233 81.001521 L 45.545239 80.999566 L 36.867125 44.209416 L 36.628177 44.211772 L 28.191855 81.002456 L 16.529121 81.000427 L 5.124045 33.312372 L 0.403701 33.052858 L 0.403657 26.02619 L 20.906972 26.028337 L 20.905162 32.728751 L 18.184157 32.968218 C 16.473012 33.143575 15.62003 33.862316 15.621756 35.130948 C 15.621468 35.343471 15.648319 35.59126 15.702311 35.874314 L 22.907423 67.782858 L 23.228698 67.782528 L 31.82434 30.409249 L 42.478836 30.409528 L 51.422077 67.940997 L 51.580224 67.941594 L 58.605494 33.391404 L 54.144115 33.052593 L 54.14407 26.025925 L 72.7297 26.027003 Z M 72.73287 32.725892 " stroke="#ffbd59" stroke-width="3.564932" stroke-opacity="1" stroke-miterlimit="4"/><path stroke-linecap="butt" transform="matrix(0.680201, 0.315953, -0.315953, 0.680201, 333.810512, 27.562967)" fill="none" stroke-linejoin="miter" d="M 2.643384 81.0024 L 2.643054 74.300723 L 5.630438 74.055901 C 7.057238 73.950205 7.771608 73.176187 7.768825 71.73604 L 7.769012 33.310981 L 3.064869 33.049623 L 3.066676 26.0311 L 17.938182 26.026133 L 41.328486 63.969296 L 41.493994 63.967074 L 41.491662 33.313172 L 36.041801 33.053632 L 36.041415 26.030385 L 56.202456 26.026348 L 56.202787 32.728024 L 53.236491 32.968793 C 51.919187 33.075314 51.260676 33.932499 51.258763 35.535624 L 51.260822 81.000295 L 41.571887 80.998449 L 17.699633 42.475161 L 17.515565 42.474519 L 17.519016 73.736636 L 22.904088 73.980329 L 22.90228 80.998851 Z M 2.643384 81.0024 " stroke="#ffbd59" stroke-width="3.564932" stroke-opacity="1" stroke-miterlimit="4"/><g fill="#000000" fill-opacity="1"><g transform="translate(26.618747, 101.104563)"><g><path d="M 1.90625 -0.890625 L -0.21875 -5.4375 L 1.5625 -6.484375 C 2.59375 -7.097656 2.890625 -7.875 2.453125 -8.8125 L -9.796875 -34.921875 L -13.078125 -33.578125 L -15.3125 -38.359375 L 0.078125 -45.5625 C 5.566406 -48.144531 10.539062 -48.703125 15 -47.234375 C 19.46875 -45.765625 23.039062 -42.164062 25.71875 -36.4375 C 27.382812 -32.882812 28.367188 -29.566406 28.671875 -26.484375 C 28.972656 -23.398438 28.664062 -20.734375 27.75 -18.484375 C 25.945312 -13.984375 22.648438 -10.613281 17.859375 -8.375 Z M -2.71875 -37.625 L 9.703125 -11.125 L 15.4375 -13.8125 C 18.65625 -15.320312 20.617188 -17.65625 21.328125 -20.8125 C 22.035156 -23.96875 21.359375 -27.753906 19.296875 -32.171875 C 15.253906 -40.785156 9.582031 -43.382812 2.28125 -39.96875 Z M -2.71875 -37.625 "/></g></g></g><g fill="#000000" fill-opacity="1"><g transform="translate(61.474533, 84.600306)"><g><path d="M 6.984375 -46.59375 C 11.628906 -48.15625 16.066406 -47.8125 20.296875 -45.5625 C 24.535156 -43.320312 27.785156 -38.820312 30.046875 -32.0625 C 32.316406 -25.300781 32.472656 -19.664062 30.515625 -15.15625 C 28.566406 -10.644531 24.9375 -7.5 19.625 -5.71875 C 14.320312 -3.945312 9.582031 -4.28125 5.40625 -6.71875 C 1.238281 -9.15625 -1.945312 -13.664062 -4.15625 -20.25 C -5.363281 -23.851562 -5.894531 -27.191406 -5.75 -30.265625 C -5.601562 -33.347656 -4.914062 -35.925781 -3.6875 -38 C -1.21875 -42.175781 2.335938 -45.039062 6.984375 -46.59375 Z M 3.09375 -23 C 6.34375 -13.28125 11.335938 -9.550781 18.078125 -11.8125 C 21.679688 -13.019531 23.707031 -15.351562 24.15625 -18.8125 C 24.613281 -21.894531 24.203125 -25.335938 22.921875 -29.140625 C 21.785156 -32.546875 20.148438 -35.476562 18.015625 -37.9375 C 16.835938 -39.289062 15.414062 -40.191406 13.75 -40.640625 C 12.09375 -41.085938 10.1875 -40.945312 8.03125 -40.21875 C 5.875 -39.5 4.257812 -38.175781 3.1875 -36.25 C 2.113281 -34.320312 1.617188 -32.257812 1.703125 -30.0625 C 1.785156 -27.863281 2.25 -25.507812 3.09375 -23 Z M 3.09375 -23 "/></g></g></g><g fill="#000000" fill-opacity="1"><g transform="translate(97.405352, 71.863393)"><g><path d="M 46.796875 -45.8125 L 44.8125 -45.25 C 43.769531 -44.957031 43.238281 -44.097656 43.21875 -42.671875 L 41.890625 -8.015625 L 33.546875 -6.421875 L 21.96875 -32.3125 L 21.796875 -32.265625 L 20.765625 -3.96875 L 12.1875 -2.328125 L -2.9375 -35.859375 L -6.4375 -35.375 L -7.4375 -40.5625 L 7.65625 -43.453125 L 8.609375 -38.515625 L 6.625 -37.9375 C 5.394531 -37.582031 4.867188 -36.9375 5.046875 -36 C 5.078125 -35.832031 5.132812 -35.65625 5.21875 -35.46875 L 15 -12.984375 L 15.25 -13.03125 L 16.328125 -41.75 L 24.1875 -43.25 L 36.03125 -16.875 L 36.15625 -16.890625 L 36.453125 -43.34375 L 33.140625 -42.9375 L 32.140625 -48.125 L 45.84375 -50.75 Z M 46.796875 -45.8125 "/></g></g></g><g fill="#000000" fill-opacity="1"><g transform="translate(148.19727, 62.312773)"><g><path d="M 1.984375 -0.109375 L 1.734375 -5.125 L 3.953125 -5.421875 C 5.015625 -5.554688 5.519531 -6.15625 5.46875 -7.21875 L 3.984375 -36.03125 L 0.453125 -36.03125 L 0.1875 -41.296875 L 11.328125 -41.859375 L 30.296875 -14.34375 L 30.421875 -14.34375 L 29.234375 -37.328125 L 25.15625 -37.296875 L 24.890625 -42.5625 L 39.984375 -43.328125 L 40.234375 -38.3125 L 38.03125 -38.015625 C 37.039062 -37.878906 36.578125 -37.210938 36.640625 -36.015625 L 38.390625 -1.96875 L 31.140625 -1.59375 L 11.765625 -29.546875 L 11.640625 -29.53125 L 12.84375 -6.125 L 16.890625 -6.140625 L 17.15625 -0.875 Z M 1.984375 -0.109375 "/></g></g></g><g fill="#000000" fill-opacity="1"><g transform="translate(189.317501, 60.317501)"><g><path d="M 13.90625 -6.140625 L 15.515625 -34.25 L 10.6875 -34.53125 C 9.726562 -34.582031 9.210938 -33.96875 9.140625 -32.6875 L 8.96875 -29.78125 L 2.703125 -30.59375 L 3.3125 -41.125 L 35.671875 -39.25 L 35.0625 -28.71875 L 28.71875 -28.640625 L 28.890625 -31.546875 C 28.929688 -32.242188 28.851562 -32.742188 28.65625 -33.046875 C 28.46875 -33.359375 27.984375 -33.535156 27.203125 -33.578125 L 23 -33.828125 L 21.296875 -4.234375 L 26.171875 -3.765625 L 25.875 1.484375 L 8.421875 0.484375 L 8.703125 -4.515625 L 12 -4.515625 C 13.207031 -4.566406 13.84375 -5.109375 13.90625 -6.140625 Z M 13.90625 -6.140625 "/></g></g></g><g fill="#000000" fill-opacity="1"><g transform="translate(221.131158, 61.841213)"><g><path d="M 27.953125 -37.921875 C 32.785156 -37.128906 36.550781 -34.753906 39.25 -30.796875 C 41.945312 -26.835938 42.71875 -21.335938 41.5625 -14.296875 C 40.40625 -7.265625 37.910156 -2.210938 34.078125 0.859375 C 30.242188 3.929688 25.5625 5.015625 20.03125 4.109375 C 14.507812 3.203125 10.472656 0.695312 7.921875 -3.40625 C 5.367188 -7.507812 4.65625 -12.988281 5.78125 -19.84375 C 6.394531 -23.59375 7.484375 -26.789062 9.046875 -29.4375 C 10.617188 -32.09375 12.429688 -34.050781 14.484375 -35.3125 C 18.628906 -37.851562 23.117188 -38.722656 27.953125 -37.921875 Z M 13.46875 -18.890625 C 11.8125 -8.773438 14.488281 -3.140625 21.5 -1.984375 C 25.25 -1.367188 28.132812 -2.488281 30.15625 -5.34375 C 32 -7.851562 33.242188 -11.085938 33.890625 -15.046875 C 34.472656 -18.585938 34.394531 -21.941406 33.65625 -25.109375 C 33.238281 -26.859375 32.40625 -28.320312 31.15625 -29.5 C 29.90625 -30.675781 28.15625 -31.445312 25.90625 -31.8125 C 23.664062 -32.1875 21.617188 -31.769531 19.765625 -30.5625 C 17.910156 -29.351562 16.503906 -27.757812 15.546875 -25.78125 C 14.597656 -23.800781 13.90625 -21.503906 13.46875 -18.890625 Z M 13.46875 -18.890625 "/></g></g></g><g fill="#000000" fill-opacity="1"><g transform="translate(258.849646, 67.370029)"><g><path d="M 62.765625 -18.640625 L 60.765625 -19.0625 C 59.710938 -19.289062 58.835938 -18.78125 58.140625 -17.53125 L 40.78125 12.484375 L 32.65625 10 L 34.515625 -18.296875 L 34.34375 -18.34375 L 20.21875 6.1875 L 11.859375 3.625 L 14.140625 -33.09375 L 10.828125 -34.28125 L 12.375 -39.328125 L 27.078125 -34.828125 L 25.59375 -30.015625 L 23.59375 -30.4375 C 22.332031 -30.695312 21.5625 -30.375 21.28125 -29.46875 C 21.226562 -29.300781 21.191406 -29.117188 21.171875 -28.921875 L 19.328125 -4.453125 L 19.5625 -4.390625 L 33.9375 -29.296875 L 41.59375 -26.953125 L 39.75 1.921875 L 39.859375 1.953125 L 52.484375 -21.28125 L 49.359375 -22.484375 L 50.90625 -27.53125 L 64.25 -23.453125 Z M 62.765625 -18.640625 "/></g></g></g><g fill="#000000" fill-opacity="1"><g transform="translate(308.21835, 82.659277)"><g><path d="M 1.796875 0.84375 L 3.90625 -3.703125 L 6.015625 -2.9375 C 7.023438 -2.5625 7.753906 -2.863281 8.203125 -3.84375 L 20.359375 -30 L 17.21875 -31.640625 L 19.453125 -36.421875 L 29.578125 -31.71875 L 33.484375 1.484375 L 33.609375 1.53125 L 43.3125 -19.34375 L 39.65625 -21.21875 L 41.890625 -26 L 55.609375 -19.625 L 53.484375 -15.0625 L 51.375 -15.84375 C 50.445312 -16.1875 49.726562 -15.816406 49.21875 -14.734375 L 34.859375 16.1875 L 28.28125 13.140625 L 24.203125 -20.609375 L 24.09375 -20.671875 L 14.21875 0.578125 L 17.796875 2.453125 L 15.578125 7.234375 Z M 1.796875 0.84375 "/></g></g></g><path stroke-linecap="butt" transform="matrix(0.75, 0, 0, 0.75, 116.759132, 70.02008)" fill="none" stroke-linejoin="miter" d="M 4.524282 64.561773 L 15.201366 33.634688 L 11.024283 33.228438 L 11.024283 27.848229 L 26.227408 27.848229 L 39.758659 66.16594 L 39.841993 66.16594 L 43.618034 66.358648 L 43.618034 71.999273 L 26.482617 71.999273 L 26.482617 66.619065 L 29.013867 66.426356 C 29.769075 66.337815 30.279492 66.16594 30.5347 65.905523 C 30.805534 65.634689 30.826367 65.145106 30.602409 64.431564 L 29.206575 60.311772 L 13.680533 60.311772 L 11.685741 66.16594 L 15.675324 66.358648 L 15.675324 71.999273 L 0.326365 71.999273 L 0.326365 66.619065 L 2.52949 66.426356 C 3.456574 66.337815 4.12324 65.718023 4.524282 64.561773 Z M 21.446158 35.285729 L 15.269074 54.202397 L 27.618034 54.202397 L 21.638867 35.285729 Z M 46.534701 27.848229 L 65.253452 27.848229 C 74.815953 27.848229 79.597203 31.546146 79.597203 38.936771 C 79.597203 43.009688 77.560745 46.108647 73.487828 48.238855 C 76.091995 48.895105 78.133661 50.113855 79.612828 51.884689 C 81.10762 53.655522 81.852412 55.957606 81.852412 58.790939 C 81.852412 63.077398 80.399287 66.35344 77.493036 68.613856 C 74.597203 70.869065 70.383661 71.999273 64.847202 71.999273 L 46.190951 71.999273 L 46.190951 66.619065 L 48.38366 66.426356 C 49.66491 66.296148 50.310743 65.671148 50.310743 64.561773 L 50.310743 33.697188 L 46.534701 33.488854 Z M 58.41491 51.884689 L 58.41491 65.759689 L 64.654494 65.759689 C 70.404494 65.759689 73.279495 63.415939 73.279495 58.723231 C 73.279495 56.509689 72.560744 54.816981 71.123244 53.650314 C 69.685744 52.47323 67.638869 51.884689 64.977411 51.884689 Z M 58.41491 33.957604 L 58.41491 45.968022 L 63.326369 45.968022 C 66.071161 45.968022 68.097203 45.405522 69.404494 44.28573 C 70.711786 43.150313 71.362828 41.56698 71.362828 39.53573 C 71.362828 37.50448 70.711786 36.066979 69.404494 35.223229 C 68.097203 34.379479 66.227411 33.957604 63.795119 33.957604 Z M 58.41491 33.957604 " stroke="#ffbd59" stroke-width="2.489959" stroke-opacity="1" stroke-miterlimit="4"/><g fill="#000000" fill-opacity="1"><g transform="translate(116.759132, 124.020076)"><g><path d="M 3.390625 -5.578125 L 11.40625 -28.78125 L 8.265625 -29.078125 L 8.265625 -33.109375 L 19.671875 -33.109375 L 29.828125 -4.375 L 29.875 -4.375 L 32.71875 -4.234375 L 32.71875 0 L 19.875 0 L 19.875 -4.03125 L 21.765625 -4.1875 C 22.328125 -4.25 22.707031 -4.378906 22.90625 -4.578125 C 23.101562 -4.773438 23.117188 -5.140625 22.953125 -5.671875 L 21.90625 -8.765625 L 10.265625 -8.765625 L 8.765625 -4.375 L 11.75 -4.234375 L 11.75 0 L 0.25 0 L 0.25 -4.03125 L 1.890625 -4.1875 C 2.585938 -4.25 3.085938 -4.710938 3.390625 -5.578125 Z M 16.078125 -27.53125 L 11.453125 -13.34375 L 20.71875 -13.34375 L 16.234375 -27.53125 Z M 16.078125 -27.53125 "/></g></g></g><g fill="#000000" fill-opacity="1"><g transform="translate(149.714327, 124.020076)"><g><path d="M 1.9375 -33.109375 L 15.984375 -33.109375 C 23.148438 -33.109375 26.734375 -30.335938 26.734375 -24.796875 C 26.734375 -21.742188 25.207031 -19.421875 22.15625 -17.828125 C 24.113281 -17.328125 25.648438 -16.410156 26.765625 -15.078125 C 27.878906 -13.753906 28.4375 -12.03125 28.4375 -9.90625 C 28.4375 -6.6875 27.347656 -4.226562 25.171875 -2.53125 C 22.992188 -0.84375 19.832031 0 15.6875 0 L 1.6875 0 L 1.6875 -4.03125 L 3.34375 -4.1875 C 4.300781 -4.28125 4.78125 -4.742188 4.78125 -5.578125 L 4.78125 -28.734375 L 1.9375 -28.875 Z M 10.859375 -15.09375 L 10.859375 -4.6875 L 15.53125 -4.6875 C 19.851562 -4.6875 22.015625 -6.441406 22.015625 -9.953125 C 22.015625 -11.617188 21.472656 -12.890625 20.390625 -13.765625 C 19.304688 -14.648438 17.769531 -15.09375 15.78125 -15.09375 Z M 10.859375 -28.53125 L 10.859375 -19.515625 L 14.546875 -19.515625 C 16.597656 -19.515625 18.113281 -19.9375 19.09375 -20.78125 C 20.070312 -21.632812 20.5625 -22.820312 20.5625 -24.34375 C 20.5625 -25.875 20.070312 -26.953125 19.09375 -27.578125 C 18.113281 -28.210938 16.710938 -28.53125 14.890625 -28.53125 Z M 10.859375 -28.53125 "/></g></g></g><path stroke-linecap="butt" transform="matrix(0.75, 0, 0, 0.75, 78.47397, 55.754893)" fill="none" stroke-linejoin="miter" d="M 36.972209 44.597645 C 36.352417 43.535145 34.029501 43.003895 30.013875 43.003895 C 24.758667 43.003895 20.769083 44.779937 18.050333 48.342437 C 15.347208 51.904937 13.993041 57.045562 13.993041 63.764313 C 13.993041 77.727855 19.222208 84.712231 29.68575 84.712231 C 29.852417 84.712231 30.597209 84.712231 31.920126 84.712231 C 33.243042 84.712231 34.503459 84.524731 35.685751 84.154939 C 36.873251 83.779939 37.576376 83.399731 37.800334 83.014314 C 38.034709 82.613272 38.149293 81.993481 38.149293 81.154939 L 38.149293 74.363272 L 46.805543 74.96223 L 46.805543 89.618481 C 42.404501 91.936189 36.805542 93.097648 30.013875 93.097648 C 21.362833 93.097648 14.758666 90.670564 10.206583 85.811189 C 5.664916 80.951814 3.394082 73.71223 3.394082 64.097646 C 3.394082 58.779938 4.154499 54.149729 5.670124 50.20702 C 7.201374 46.243479 9.269083 43.160145 11.862833 40.951812 C 16.951375 36.717436 23.003458 34.597644 30.013875 34.597644 C 35.675334 34.597644 40.987834 35.753895 45.956585 38.076811 L 45.956585 52.483062 L 37.300334 53.082021 L 37.300334 46.45702 C 37.300334 45.618478 37.190959 44.993478 36.972209 44.597645 Z M 36.972209 44.597645 " stroke="#ffbd59" stroke-width="3.17994" stroke-opacity="1" stroke-miterlimit="4"/><g fill="#000000" fill-opacity="1"><g transform="translate(78.47397, 124.754889)"><g><path d="M 27.734375 -35.546875 C 27.265625 -36.347656 25.523438 -36.75 22.515625 -36.75 C 18.566406 -36.75 15.578125 -35.414062 13.546875 -32.75 C 11.515625 -30.082031 10.5 -26.222656 10.5 -21.171875 C 10.5 -10.703125 14.421875 -5.46875 22.265625 -5.46875 C 22.390625 -5.46875 22.945312 -5.46875 23.9375 -5.46875 C 24.9375 -5.46875 25.878906 -5.601562 26.765625 -5.875 C 27.660156 -6.15625 28.191406 -6.441406 28.359375 -6.734375 C 28.535156 -7.035156 28.625 -7.503906 28.625 -8.140625 L 28.625 -13.234375 L 35.109375 -12.78125 L 35.109375 -1.78125 C 31.796875 -0.0390625 27.597656 0.828125 22.515625 0.828125 C 16.023438 0.828125 11.070312 -0.992188 7.65625 -4.640625 C 4.25 -8.285156 2.546875 -13.710938 2.546875 -20.921875 C 2.546875 -24.910156 3.117188 -28.382812 4.265625 -31.34375 C 5.410156 -34.3125 6.957031 -36.625 8.90625 -38.28125 C 12.71875 -41.457031 17.253906 -43.046875 22.515625 -43.046875 C 26.753906 -43.046875 30.738281 -42.179688 34.46875 -40.453125 L 34.46875 -29.640625 L 27.984375 -29.1875 L 27.984375 -34.15625 C 27.984375 -34.789062 27.898438 -35.253906 27.734375 -35.546875 Z M 27.734375 -35.546875 "/></g></g></g><path stroke-linecap="butt" transform="matrix(0.75, 0, 0, 0.75, 200.400637, 57.918983)" fill="none" stroke-linejoin="miter" d="M 36.971028 44.597609 C 36.351236 43.535109 34.033528 43.003859 30.017902 43.003859 C 24.757485 43.003859 20.767902 44.779901 18.049152 48.342401 C 15.346027 51.904901 13.99186 57.045526 13.99186 63.764277 C 13.99186 77.727819 19.226235 84.712195 29.684569 84.712195 C 29.851236 84.712195 30.596027 84.712195 31.918944 84.712195 C 33.247069 84.712195 34.502278 84.524695 35.689778 84.154903 C 36.877278 83.779903 37.580403 83.404903 37.799153 83.014278 C 38.033528 82.613236 38.15332 81.993445 38.15332 81.154903 L 38.15332 74.363236 L 46.804362 74.962194 L 46.804362 89.618445 C 42.40332 91.936154 36.804361 93.097612 30.017902 93.097612 C 21.361652 93.097612 14.757485 90.670528 10.205401 85.811153 C 5.663734 80.951778 3.392901 73.712194 3.392901 64.09761 C 3.392901 58.779902 4.153318 54.149693 5.674151 50.206984 C 7.205401 46.243443 9.267901 43.160109 11.861651 40.951776 C 16.955402 36.7174 23.007485 34.597609 30.017902 34.597609 C 35.674153 34.597609 40.986653 35.753859 45.955403 38.076775 L 45.955403 52.483026 L 37.304361 53.081985 L 37.304361 46.456984 C 37.304361 45.618442 37.189778 44.993442 36.971028 44.597609 Z M 36.971028 44.597609 " stroke="#ffbd59" stroke-width="3.17994" stroke-opacity="1" stroke-miterlimit="4"/><g fill="#000000" fill-opacity="1"><g transform="translate(200.400637, 126.918979)"><g><path d="M 27.734375 -35.546875 C 27.265625 -36.347656 25.523438 -36.75 22.515625 -36.75 C 18.566406 -36.75 15.578125 -35.414062 13.546875 -32.75 C 11.515625 -30.082031 10.5 -26.222656 10.5 -21.171875 C 10.5 -10.703125 14.421875 -5.46875 22.265625 -5.46875 C 22.390625 -5.46875 22.945312 -5.46875 23.9375 -5.46875 C 24.9375 -5.46875 25.878906 -5.601562 26.765625 -5.875 C 27.660156 -6.15625 28.191406 -6.441406 28.359375 -6.734375 C 28.535156 -7.035156 28.625 -7.503906 28.625 -8.140625 L 28.625 -13.234375 L 35.109375 -12.78125 L 35.109375 -1.78125 C 31.796875 -0.0390625 27.597656 0.828125 22.515625 0.828125 C 16.023438 0.828125 11.070312 -0.992188 7.65625 -4.640625 C 4.25 -8.285156 2.546875 -13.710938 2.546875 -20.921875 C 2.546875 -24.910156 3.117188 -28.382812 4.265625 -31.34375 C 5.410156 -34.3125 6.957031 -36.625 8.90625 -38.28125 C 12.71875 -41.457031 17.253906 -43.046875 22.515625 -43.046875 C 26.753906 -43.046875 30.738281 -42.179688 34.46875 -40.453125 L 34.46875 -29.640625 L 27.984375 -29.1875 L 27.984375 -34.15625 C 27.984375 -34.789062 27.898438 -35.253906 27.734375 -35.546875 Z M 27.734375 -35.546875 "/></g></g></g><path stroke-linecap="butt" transform="matrix(0.75, 0, 0, 0.75, 238.68579, 73.874933)" fill="none" stroke-linejoin="miter" d="M 22.934573 27.052174 C 28.184573 27.052174 32.580407 28.911549 36.111657 32.6303 C 39.658532 36.34905 41.429366 42.026134 41.429366 49.666759 C 41.429366 57.291759 39.668949 63.067801 36.142907 66.989677 C 32.63249 70.901135 27.877282 72.859469 21.88249 72.859469 C 15.882489 72.859469 11.179364 70.911552 7.762697 67.026135 C 4.361655 63.125093 2.65853 57.453218 2.65853 50.020926 C 2.65853 45.948009 3.25228 42.375092 4.43978 39.307383 C 5.642905 36.229258 7.210614 33.843841 9.158531 32.16155 C 13.101239 28.755299 17.694989 27.052174 22.934573 27.052174 Z M 10.955406 49.698009 C 10.955406 60.677176 14.762698 66.16676 22.366865 66.16676 C 26.439782 66.16676 29.299157 64.47926 30.939782 61.109468 C 32.44499 58.145926 33.19499 54.520926 33.19499 50.234467 C 33.19499 46.375092 32.528324 42.828217 31.200198 39.59905 C 30.44499 37.828217 29.304365 36.432383 27.783532 35.416758 C 26.25749 34.401133 24.273115 33.895925 21.830406 33.895925 C 19.403323 33.895925 17.309573 34.6928 15.559573 36.291758 C 13.819989 37.8803 12.616864 39.802175 11.944989 42.062592 C 11.288739 44.323009 10.955406 46.864676 10.955406 49.698009 Z M 51.559575 72.989677 C 50.017908 72.989677 48.819991 72.562594 47.981449 71.708427 C 47.148116 70.843844 46.731449 69.713635 46.731449 68.32301 C 46.731449 66.927177 47.163741 65.776135 48.028324 64.869885 C 48.892908 63.958427 50.064783 63.505302 51.54395 63.505302 C 53.023116 63.505302 54.210616 63.937593 55.096033 64.802177 C 55.98145 65.656343 56.424158 66.786552 56.424158 68.192802 C 56.424158 69.583427 56.002283 70.734469 55.158533 71.645927 C 54.314783 72.54176 53.116866 72.989677 51.559575 72.989677 Z M 51.559575 72.989677 " stroke="#ffbd59" stroke-width="2.489959" stroke-opacity="1" stroke-miterlimit="4"/><g fill="#000000" fill-opacity="1"><g transform="translate(238.68579, 127.87493)"><g><path d="M 17.203125 -33.71875 C 21.140625 -33.71875 24.4375 -32.320312 27.09375 -29.53125 C 29.75 -26.738281 31.078125 -22.476562 31.078125 -16.75 C 31.078125 -11.03125 29.753906 -6.703125 27.109375 -3.765625 C 24.472656 -0.828125 20.90625 0.640625 16.40625 0.640625 C 11.90625 0.640625 8.375 -0.816406 5.8125 -3.734375 C 3.257812 -6.648438 1.984375 -10.898438 1.984375 -16.484375 C 1.984375 -19.535156 2.429688 -22.210938 3.328125 -24.515625 C 4.234375 -26.828125 5.414062 -28.613281 6.875 -29.875 C 9.820312 -32.4375 13.265625 -33.71875 17.203125 -33.71875 Z M 8.21875 -16.734375 C 8.21875 -8.492188 11.070312 -4.375 16.78125 -4.375 C 19.832031 -4.375 21.972656 -5.640625 23.203125 -8.171875 C 24.328125 -10.390625 24.890625 -13.109375 24.890625 -16.328125 C 24.890625 -19.222656 24.394531 -21.878906 23.40625 -24.296875 C 22.84375 -25.628906 21.988281 -26.675781 20.84375 -27.4375 C 19.695312 -28.195312 18.207031 -28.578125 16.375 -28.578125 C 14.550781 -28.578125 12.984375 -27.976562 11.671875 -26.78125 C 10.359375 -25.59375 9.453125 -24.148438 8.953125 -22.453125 C 8.460938 -20.765625 8.21875 -18.859375 8.21875 -16.734375 Z M 8.21875 -16.734375 "/></g></g></g><g fill="#000000" fill-opacity="1"><g transform="translate(271.740548, 127.87493)"><g><path d="M 5.625 0.75 C 4.46875 0.75 3.570312 0.425781 2.9375 -0.21875 C 2.300781 -0.863281 1.984375 -1.707031 1.984375 -2.75 C 1.984375 -3.800781 2.304688 -4.664062 2.953125 -5.34375 C 3.609375 -6.03125 4.488281 -6.375 5.59375 -6.375 C 6.707031 -6.375 7.597656 -6.050781 8.265625 -5.40625 C 8.929688 -4.757812 9.265625 -3.910156 9.265625 -2.859375 C 9.265625 -1.816406 8.945312 -0.953125 8.3125 -0.265625 C 7.6875 0.410156 6.789062 0.75 5.625 0.75 Z M 5.625 0.75 "/></g></g></g></svg>